<svg width="20" height="11" viewBox="0 0 20 11" fill="none" xmlns="http://www.w3.org/2000/svg">
<path d="M14.5275 0.946818L14.4748 0.894354L14.4219 0.946695L13.7754 1.58655L13.7217 1.63972L13.7753 1.69303L17.0746 4.97546L0.999811 5.01591L0.925 5.0161V5.09091V5.90909V5.9839L0.999811 5.98409L17.0745 6.02454C16.4199 6.67523 15.8109 7.27953 15.2082 7.87755C14.7331 8.34902 14.2618 8.81659 13.7753 9.29992L13.7219 9.35293L13.7751 9.40614L14.4216 10.053L14.4745 10.1059L14.5275 10.0532C15.1872 9.39783 16.0142 8.57516 16.8379 7.75578C17.6298 6.96801 18.4187 6.18329 19.0529 5.55321L19.1064 5.50002L19.0529 5.44682L14.5275 0.946818Z" fill="white" stroke="white" stroke-width="0.15"/>
</svg>
