<?xml version="1.0" encoding="UTF-8"?>
<svg width="136px" height="32px" viewBox="0 0 136 32" version="1.1" xmlns="http://www.w3.org/2000/svg" xmlns:xlink="http://www.w3.org/1999/xlink">
    <!-- Generator: Sketch 52.5 (67469) - http://www.bohemiancoding.com/sketch -->
    <title>Coming Soon Tag</title>
    <desc>Created with Sketch.</desc>
    <g id="Home" stroke="none" stroke-width="1" fill="none" fill-rule="evenodd">
        <g id="Corporate-Web_1920" transform="translate(-975.000000, -7969.000000)" fill="#FFFFFF">
            <path d="M975,7969 L1111,7969 L1111,8001 L975,8001 L975,7969 Z M994.684,7986.916 C994.228,7987.384 993.484,7987.792 992.452,7987.792 C991.096,7987.792 989.968,7986.868 989.968,7985.248 C989.968,7983.628 991.048,7982.692 992.452,7982.692 C993.544,7982.692 994.432,7983.352 994.588,7983.556 L995.188,7981.948 C994.972,7981.72 994.048,7981.012 992.344,7981.012 C989.932,7981.012 988,7982.608 988,7985.284 C988,7987.948 989.908,7989.556 992.344,7989.556 C994.036,7989.556 994.912,7988.86 995.332,7988.428 L994.684,7986.916 Z M1006.744,7985.284 C1006.744,7982.608 1004.812,7981 1002.352,7981 C999.892,7981 997.96,7982.608 997.96,7985.284 C997.96,7987.96 999.892,7989.556 1002.352,7989.556 C1004.812,7989.556 1006.744,7987.96 1006.744,7985.284 Z M1004.776,7985.236 C1004.776,7986.82 1003.732,7987.828 1002.352,7987.828 C1000.972,7987.828 999.928,7986.82 999.928,7985.236 C999.928,7983.652 1000.972,7982.656 1002.352,7982.656 C1003.732,7982.656 1004.776,7983.664 1004.776,7985.236 Z M1018.912,7981.132 L1016.452,7981.132 L1014.748,7986.58 L1014.724,7986.58 L1012.996,7981.132 L1010.548,7981.132 L1009.924,7989.412 L1011.832,7989.412 L1012.132,7983.772 L1012.168,7983.772 L1013.956,7989.412 L1015.492,7989.412 L1017.268,7983.772 L1017.292,7983.772 L1017.616,7989.412 L1019.524,7989.412 L1018.912,7981.132 Z M1025.068,7981.132 L1023.124,7981.132 L1023.124,7989.412 L1025.068,7989.412 L1025.068,7981.132 Z M1036.468,7981.132 L1034.572,7981.132 L1034.572,7984.888 C1034.572,7985.764 1034.608,7986.7 1034.608,7986.7 L1031.056,7981.132 L1028.98,7981.132 L1028.98,7989.412 L1030.876,7989.412 L1030.876,7985.668 C1030.876,7984.792 1030.84,7983.796 1030.84,7983.796 L1034.476,7989.412 L1036.468,7989.412 L1036.468,7981.132 Z M1047.952,7984.696 L1044.316,7984.696 L1044.316,7986.172 L1046.056,7986.172 L1046.056,7987.396 C1046.056,7987.396 1045.672,7987.924 1044.328,7987.924 C1042.984,7987.924 1041.928,7986.952 1041.928,7985.272 C1041.928,7983.592 1042.96,7982.62 1044.292,7982.62 C1045.42,7982.62 1046.068,7983.184 1046.416,7983.568 L1047.7,7982.452 C1047.436,7982.164 1046.488,7981.012 1044.292,7981.012 C1041.976,7981.012 1039.96,7982.512 1039.96,7985.272 C1039.96,7988.032 1041.976,7989.544 1044.268,7989.544 C1046.548,7989.544 1047.532,7988.5 1047.952,7988.128 L1047.952,7984.696 Z M1062.064,7986.892 C1062.064,7986.148 1061.764,7985.644 1061.416,7985.296 C1061.044,7984.924 1060.492,7984.708 1060.264,7984.624 C1060,7984.516 1059.388,7984.3 1059.028,7984.156 C1058.656,7984.012 1058.188,7983.82 1058.188,7983.316 C1058.188,7982.812 1058.644,7982.572 1059.268,7982.572 C1059.892,7982.572 1060.636,7982.932 1061.116,7983.412 L1061.944,7982.056 C1061.38,7981.492 1060.276,7981.036 1059.316,7981.036 C1058.356,7981.036 1057.6,7981.3 1057.132,7981.696 C1056.652,7982.092 1056.268,7982.716 1056.268,7983.508 C1056.268,7984.288 1056.556,7984.768 1056.916,7985.104 C1057.276,7985.452 1057.696,7985.608 1057.9,7985.704 C1058.176,7985.824 1058.8,7986.04 1059.16,7986.172 C1059.52,7986.304 1060.132,7986.52 1060.132,7987.084 C1060.132,7987.636 1059.652,7987.936 1059.028,7987.936 C1058.392,7987.936 1057.468,7987.516 1056.868,7986.892 L1055.908,7988.308 C1056.58,7988.932 1057.648,7989.556 1058.848,7989.556 C1059.736,7989.556 1060.504,7989.34 1061.092,7988.872 C1061.692,7988.404 1062.064,7987.684 1062.064,7986.892 Z M1073.86,7985.284 C1073.86,7982.608 1071.928,7981 1069.468,7981 C1067.008,7981 1065.076,7982.608 1065.076,7985.284 C1065.076,7987.96 1067.008,7989.556 1069.468,7989.556 C1071.928,7989.556 1073.86,7987.96 1073.86,7985.284 Z M1071.892,7985.236 C1071.892,7986.82 1070.848,7987.828 1069.468,7987.828 C1068.088,7987.828 1067.044,7986.82 1067.044,7985.236 C1067.044,7983.652 1068.088,7982.656 1069.468,7982.656 C1070.848,7982.656 1071.892,7983.664 1071.892,7985.236 Z M1085.716,7985.284 C1085.716,7982.608 1083.784,7981 1081.324,7981 C1078.864,7981 1076.932,7982.608 1076.932,7985.284 C1076.932,7987.96 1078.864,7989.556 1081.324,7989.556 C1083.784,7989.556 1085.716,7987.96 1085.716,7985.284 Z M1083.748,7985.236 C1083.748,7986.82 1082.704,7987.828 1081.324,7987.828 C1079.944,7987.828 1078.9,7986.82 1078.9,7985.236 C1078.9,7983.652 1079.944,7982.656 1081.324,7982.656 C1082.704,7982.656 1083.748,7983.664 1083.748,7985.236 Z M1096.696,7981.132 L1094.8,7981.132 L1094.8,7984.888 C1094.8,7985.764 1094.836,7986.7 1094.836,7986.7 L1091.284,7981.132 L1089.208,7981.132 L1089.208,7989.412 L1091.104,7989.412 L1091.104,7985.668 C1091.104,7984.792 1091.068,7983.796 1091.068,7983.796 L1094.704,7989.412 L1096.696,7989.412 L1096.696,7981.132 Z" id="Coming-Soon-Tag"></path>
        </g>
    </g>
</svg>