<svg xmlns="http://www.w3.org/2000/svg" xmlns:xlink="http://www.w3.org/1999/xlink" viewBox="0 0 800 600"><defs><style>.cls-1{fill:none;}.cls-2{isolation:isolate;}.cls-3{fill:#aee5e0;}.cls-4{fill:#2d2d2d;}.cls-5{fill:#f5e9e2;}.cls-6{fill:#fff;}.cls-7{opacity:0.24;mix-blend-mode:multiply;}.cls-8{clip-path:url(#clip-path);}.cls-9{fill:#fefefe;}.cls-10{fill:#fdfdfd;}.cls-11{fill:#fcfcfc;}.cls-12{fill:#fbfbfb;}.cls-13{fill:#fafafa;}.cls-14{fill:#f9f9f9;}.cls-15{fill:#f8f8f8;}.cls-16{fill:#f7f7f7;}.cls-17{fill:#f6f6f6;}.cls-18{fill:#f5f5f5;}.cls-19{fill:#f4f4f4;}.cls-20{fill:#f3f3f3;}.cls-21{fill:#f2f2f2;}.cls-22{fill:#f1f1f1;}.cls-23{fill:#f0f0f0;}.cls-24{fill:#efefef;}.cls-25{fill:#eee;}.cls-26{fill:#ededed;}.cls-27{fill:#ececec;}.cls-28{fill:#ebebeb;}.cls-29{fill:#eaeaea;}.cls-30{fill:#e9e9e9;}.cls-31{fill:#e8e8e8;}.cls-32{fill:#e7e7e7;}.cls-33{fill:#e6e6e6;}.cls-34{fill:#e5e5e5;}.cls-35{fill:#e4e4e4;}.cls-36{fill:#e3e3e3;}.cls-37{fill:#e2e2e2;}.cls-38{fill:#e1e1e1;}.cls-39{fill:#e0e0e0;}.cls-40{fill:#dfdfdf;}.cls-41{fill:#dedede;}.cls-42{fill:#ddd;}.cls-43{fill:#dcdcdc;}.cls-44{fill:#dbdbdb;}.cls-45{fill:#dadada;}.cls-46{fill:#dad9d9;}.cls-47{fill:#d9d8d8;}.cls-48{fill:#d8d7d7;}.cls-49{fill:#d7d6d6;}.cls-50{fill:#d6d5d5;}.cls-51{fill:#d5d4d4;}.cls-52{fill:#d4d3d3;}.cls-53{fill:#d3d2d2;}.cls-54{fill:#d2d1d1;}.cls-55{fill:#d1d0d0;}.cls-56{fill:#d0cfcf;}.cls-57{fill:#cfcece;}.cls-58{fill:#cecdcd;}.cls-59{fill:#cdcccc;}.cls-60{fill:#cccbcb;}.cls-61{fill:#cbcaca;}.cls-62{fill:#cac9c9;}.cls-63{fill:#c9c8c8;}.cls-64{fill:#c8c7c7;}.cls-65{fill:#c7c6c6;}.cls-66{fill:#c6c5c5;}.cls-67{fill:#c5c4c4;}.cls-68{fill:#c4c3c3;}.cls-69{fill:#c3c2c2;}.cls-70{fill:#c2c1c1;}.cls-71{fill:#c1c0c0;}.cls-72{fill:#c0bfbf;}.cls-73{fill:#bfbebe;}.cls-74{fill:#bebdbd;}.cls-75{fill:#bdbcbc;}.cls-76{fill:#bcbbbb;}.cls-77{fill:#bbbaba;}.cls-78{fill:#bab9b9;}.cls-79{fill:#b9b8b8;}.cls-80{fill:#b8b7b7;}.cls-81{fill:#b7b6b6;}.cls-82{fill:#b6b5b5;}.cls-83{fill:#b5b4b4;}.cls-84{fill:#b4b3b3;}.cls-85{fill:#b3b2b2;}.cls-86{fill:#b2b1b1;}.cls-87{fill:#b1b0b0;}.cls-88{fill:#b0afaf;}.cls-89{fill:#afaeae;}.cls-90{fill:#aeadad;}.cls-91{fill:#adacac;}.cls-92{fill:#acabab;}.cls-93{fill:#abaaaa;}.cls-94{fill:#aaa9a9;}.cls-95{fill:#a9a8a8;}.cls-96{fill:#a8a7a7;}.cls-97{fill:#a7a6a6;}.cls-98{fill:#a6a5a5;}.cls-99{fill:#a5a4a4;}.cls-100{fill:#a4a3a3;}.cls-101{fill:#a3a2a2;}.cls-102{fill:#a2a1a1;}.cls-103{fill:#a1a0a0;}.cls-104{fill:#a09f9f;}.cls-105{fill:#9f9e9e;}.cls-106{fill:#9e9d9d;}.cls-107{fill:#9d9c9c;}.cls-108{fill:#9c9b9b;}.cls-109{fill:#9b9a9a;}.cls-110{fill:#9a9999;}.cls-111{fill:#999898;}.cls-112{fill:#989797;}.cls-113{fill:#979696;}.cls-114{fill:#969595;}.cls-115{fill:#959494;}.cls-116{fill:#949393;}.cls-117{fill:#939292;}.cls-118{fill:#929191;}.cls-119{fill:#919090;}.cls-120{fill:#918e8f;}.cls-121{fill:#908d8e;}.cls-122{fill:#8f8c8d;}.cls-123{fill:#8e8b8c;}.cls-124{fill:#8d8a8b;}.cls-125{fill:#8c898a;}.cls-126{fill:#8b8889;}.cls-127{fill:#8a8788;}.cls-128{fill:#898687;}.cls-129{fill:#888586;}.cls-130{fill:#878485;}.cls-131{fill:#868384;}.cls-132{fill:#858283;}.cls-133{fill:#848182;}.cls-134{fill:#838081;}.cls-135{fill:#827f80;}.cls-136{fill:#817e7f;}.cls-137{fill:#807d7e;}.cls-138{fill:#7f7c7d;}.cls-139{fill:#7e7b7c;}.cls-140{fill:#7d7a7b;}.cls-141{fill:#7c797a;}.cls-142{fill:#7b7879;}.cls-143{fill:#7a7778;}.cls-144{fill:#797677;}.cls-145{fill:#787576;}.cls-146{fill:#777475;}.cls-147{fill:#767374;}.cls-148{fill:#757273;}.cls-149{fill:#747172;}.cls-150{fill:#737071;}.cls-151{fill:#726f70;}.cls-152{fill:#716e6f;}.cls-153{fill:#706d6e;}.cls-154{fill:#6f6c6d;}.cls-155{fill:#6e6b6c;}.cls-156{fill:#6d6a6b;}.cls-157{fill:#6c696a;}.cls-158{fill:#6b6869;}.cls-159{fill:#6a6768;}.cls-160{fill:#696667;}.cls-161{fill:#686566;}.cls-162{fill:#676465;}.cls-163{fill:#666364;}.cls-164{fill:#656263;}.cls-165{fill:#646162;}.cls-166{fill:#636061;}.cls-167{fill:#625f60;}.cls-168{fill:#615e5f;}.cls-169{fill:#605d5e;}.cls-170{fill:#5f5c5d;}.cls-171{fill:#5e5b5c;}.cls-172{fill:#5d5a5b;}.cls-173{fill:#5c595a;}.cls-174{fill:#5b5859;}.cls-175{fill:#5a5758;}.cls-176{fill:#595657;}.cls-177{fill:#585556;}.cls-178{fill:#575455;}.cls-179{fill:#565354;}.cls-180{fill:#555253;}.cls-181{fill:#545152;}.cls-182{fill:#535051;}.cls-183{fill:#524f50;}.cls-184{fill:#514e4f;}.cls-185{fill:#504d4e;}.cls-186{fill:#4f4c4d;}.cls-187{fill:#4e4b4c;}.cls-188{fill:#4d4a4b;}.cls-189{fill:#4c494a;}.cls-190{fill:#4b4849;}.cls-191{fill:#4a4748;}.cls-192{fill:#494647;}.cls-193{fill:#484546;}.cls-194{fill:#484445;}.cls-195{fill:#474344;}.cls-196{fill:#464243;}.cls-197{fill:#454142;}.cls-198{fill:#444041;}.cls-199{fill:#433f40;}.cls-200{fill:#423e3f;}.cls-201{fill:#413d3e;}.cls-202{fill:#403c3d;}.cls-203{fill:#3f3b3c;}.cls-204{fill:#3e3a3b;}.cls-205{fill:#3d393a;}.cls-206{fill:#3c3839;}.cls-207{fill:#3b3738;}.cls-208{fill:#3a3637;}.cls-209{fill:#393536;}.cls-210{fill:#383435;}.cls-211{fill:#373334;}.cls-212{fill:#363233;}.cls-213{fill:#353132;}.cls-214{fill:#343031;}.cls-215{fill:#332f30;}.cls-216{fill:#322e2f;}.cls-217{fill:#312d2e;}.cls-218{fill:#302c2d;}.cls-219{fill:#2f2b2c;}.cls-220{fill:#2e2a2b;}.cls-221{fill:#2d292a;}.cls-222{fill:#2c2829;}.cls-223{fill:#2b2728;}.cls-224{fill:#2a2627;}.cls-225{fill:#292526;}.cls-226{fill:#282425;}.cls-227{fill:#272324;}.cls-228{fill:#262223;}.cls-229{fill:#252122;}.cls-230{fill:#242021;}.cls-231{fill:#231f20;}.cls-232{fill:#9ffff3;}.cls-233{fill:#f75b4f;}.cls-234{fill:#e8e87e;}.cls-235{opacity:0.32;}.cls-236{clip-path:url(#clip-path-2);}</style><clipPath id="clip-path"><path class="cls-1" d="M209.17,391.58l-7.3-22.28L214.39,373l-1.85,30.8-2.44-9.06C209.82,393.66,209.51,392.62,209.17,391.58Z"/></clipPath><clipPath id="clip-path-2"><path class="cls-1" d="M686.11,322.26c.51,3.15,3.38,13,3.83,14.45a23.37,23.37,0,0,1,.9,3.94,17.87,17.87,0,0,0,1.93,5.76,12.64,12.64,0,0,1,1.23,2.93c.12.68,0,4.74.23,6.44a58.18,58.18,0,0,0,3.95,12.41c.45,1.13,2,4.51,1.46,7.44s-.56,4.07.91,4.29c2,.45,3.27.91,4.06,1.92a4.49,4.49,0,0,0,3.83,1,1.86,1.86,0,0,0,2.15-.12c.56,0,.79-.79.67-1.46l-.89-.9a15,15,0,0,1-3.17-1.7c-.67-.67-5-2.48-5.3-17.71-.11-3.28.22-6.21-.34-8.81s-2-8-2-8a136.25,136.25,0,0,0-1.92-24.94,32,32,0,0,1-.45-5.07c0-1.81-1-8.36-1.46-9.15a14.49,14.49,0,0,0-.12-3.05,37.06,37.06,0,0,1,.12-5.07,33.23,33.23,0,0,0,.68-3.83,31.85,31.85,0,0,1,.9-4.18,49.94,49.94,0,0,0,1.35,7.33,11.58,11.58,0,0,0,.79,3.84c-.23,2.37,3.18,10.08,5.55,14.6.09,4,0,5.6.16,6.87,0,0,.2,3,.27,3.89s1,.61,1,.1l.2-3,.35,0,.59,3.46c.29,1,1,.56,1.09,0l0-3.35.23-.09,1.13,3.35c.48,1.36,1.29.65,1.14-.11l-.75-3.65.29-.08s1,1.91,1.4,2.92,1.25.53,1-.29c-.19-.63-.87-3-1.25-4.27s.5-1.48,1.24-1c1.55.89,2.11.39,2-.25a7.62,7.62,0,0,1-3.26-3c-.57-1.08-1.58-1.7-2.69-3.06-1.58-2.38-2-7.39-2.27-9.19-.45-3.73-1.58-7.45-2.59-9a21.56,21.56,0,0,0-.68-7c1.58-10.27-2-13.77-4-14.44a9.27,9.27,0,0,0-2.14-1.47c-5.76-2.48-7-3-7.41-4.17a15.76,15.76,0,0,1-.34-3.78c.17-.58.55-1.81.55-1.81s.57,0,.68-.34.62-1.52.79-2.09a7.06,7.06,0,0,0,.05-1.8c0-.23-.38-.24-.72-.24l.27-.95c.17-1.13.2-4-1-5.75a5.85,5.85,0,0,0-9.14,0c-1.21,1.71-1.19,4.62-1,5.75l.27.95c-.33,0-.72,0-.72.24a6.71,6.71,0,0,0,.06,1.8c.17.57.67,1.75.79,2.09s.68.34.68.34.38,1.23.55,1.81a15.63,15.63,0,0,1-.34,3.77c-.4,1.2-1.66,1.7-7.41,4.18a8.77,8.77,0,0,0-2.14,1.47c-1.92.67-5.53,4.17-4,14.44a21.29,21.29,0,0,0-.68,7c-1,1.58-2.15,5.3-2.6,9-.22,1.8-.68,6.81-2.26,9.18-1.11,1.37-2.12,2-2.69,3.06a7.5,7.5,0,0,1-3.26,3c-.16.64.41,1.15,2,.25.74-.47,1.62-.22,1.24,1s-1.06,3.64-1.26,4.27c-.25.82.54,1.36,1,.29s1.39-2.92,1.39-2.92l.3.08-.76,3.65c-.14.76.67,1.46,1.15.11l1.12-3.35.24.09,0,3.35c.06.56.79,1,1.08,0l.6-3.47.34,0,.2,3c.06.5.94.81,1-.11s.28-3.88.28-3.88c.15-1.27.06-2.89.16-6.88,2.36-4.51,5.77-12.22,5.54-14.59a11.58,11.58,0,0,0,.79-3.84,49.83,49.83,0,0,0,1.36-7.33A33.78,33.78,0,0,1,675,293a31,31,0,0,0,.68,3.84,35.65,35.65,0,0,1,.11,5.07,15.09,15.09,0,0,0-.11,3.05c-.45.78-1.47,7.34-1.47,9.15a32,32,0,0,1-.45,5.07,137.17,137.17,0,0,0-1.92,24.94s-1.46,5.42-2,8-.22,5.53-.34,8.81c-.34,15.23-4.62,17-5.3,17.71a14.83,14.83,0,0,1-3.16,1.69l-.9.91c-.12.67.11,1.46.67,1.46a1.84,1.84,0,0,0,2.15.11,4.46,4.46,0,0,0,3.83-1c.79-1,2-1.47,4.06-1.92,1.47-.22,1.47-1.35.91-4.29s1-6.32,1.46-7.45a57.26,57.26,0,0,0,4-12.41c.23-1.69.12-5.75.23-6.43a12.34,12.34,0,0,1,1.24-2.93,17.83,17.83,0,0,0,1.92-5.76,23.68,23.68,0,0,1,.9-3.95c.45-1.46,3.31-11.29,3.84-14.44C685.38,321.5,686,321.78,686.11,322.26Z"/></clipPath></defs><title>Corporate Illustrations_Cross Healthcare</title><g class="cls-2"><g id="Layer_1" data-name="Layer 1"><rect class="cls-3" x="0.5" y="-1" width="800" height="601"/><path class="cls-4" d="M359.58,494.11c-7.77,0-13.69-1.94-18-5.86-8.92-8.08-10.67-23.9-10.67-48.52,0-9.23-3.76-17.43-11.18-24.36-15.3-14.3-39.34-15.84-57.17-3.67a123.9,123.9,0,0,1-159-16.12c-45.64-46.92-45.64-126.21,0-173.13,43.32-44.55,113.49-50.19,163.21-13.1A30.33,30.33,0,0,0,315,182.94c0-.5-.08-1-.14-1.53-2.1-20,3.05-30.93,7.74-36.56,5.17-6.2,10.83-7.54,11.07-7.6a1,1,0,0,1,1.13.57c.07.14,6.46,14,21.48,18.23,12.55,3.56,27.41-.35,44.16-11.64a1,1,0,0,1,1.39.27,1,1,0,0,1-.27,1.39c-17.28,11.64-32.71,15.64-45.85,11.89-14-4-20.73-15.4-22.35-18.53-3.79,1.26-20,8.66-16.51,41.77q.09.81.15,1.59A32.33,32.33,0,0,1,265.55,211C216.64,174.47,147.6,180,105,223.84,60.07,270,60.07,348,105,394.19A121.94,121.94,0,0,0,261.4,410c18.6-12.69,43.69-11.07,59.67,3.86,7.84,7.33,11.82,16,11.82,25.83,0,24,1.64,39.46,10,47,4.85,4.4,12,6.06,21.94,5.06a1,1,0,1,1,.2,2C363.13,494,361.31,494.11,359.58,494.11Z"/><path class="cls-5" d="M256.55,274.13s2.41,26.32,1.24,35.14a2,2,0,0,0,.25,1.28,102.74,102.74,0,0,1,7.39,16.38,3.11,3.11,0,0,1-2.07,3.93,10.72,10.72,0,0,0-2.87,1.45,10.51,10.51,0,0,1-2.26,1.22,4.13,4.13,0,0,0-2.62,4c.26,8.11.11,26.77-6.2,35.15-8.2,10.87-25.55,1.75-35,.28l-1.85,30.8-51.87-4.55c-.25-33.28-8-60.83-28.79-78.42Z"/><path class="cls-4" d="M211.08,291.26a48.64,48.64,0,0,1,16.32-.93c4.53.6,15.61-1.53,34.65-10.45,23.71-11.11,8.65-57.31-23.07-43.76s-19.9-33.8-59.93-17.14-14.33,32.77-24.65,39.88c-12.15,8.37-27.86-11.32-41.72,16.87-.49,1-1,2-1.48,3-2.59,5-12.4,26.18-5.42,51.33,8,28.78,28,43.58,46.84,38.76,11.65-3,15.72-14.22,17.13-22.36.76-4.38-4.47-7.46-8-10.18-2.55-2-3.92-5.64-3.12-11,1-7,9.41-9.49,13.36-9.77a11.61,11.61,0,0,0,7-3.08C185.79,306.14,191.93,296.63,211.08,291.26Z"/><path class="cls-4" d="M166.88,334.9a1,1,0,0,1-.35-.06,7.28,7.28,0,0,1-4.53-8.62c1.15-4.91,5.8-6.61,8.1-6.82a1,1,0,0,1,.18,2c-.21,0-5.23.56-6.33,5.27a5.36,5.36,0,0,0,3.29,6.3,1,1,0,0,1-.36,1.93Z"/><path class="cls-4" d="M251.35,295.48a1,1,0,0,1-.6-.2c-.07,0-5.22-3.69-15.25.07a1,1,0,0,1-.7-1.88c11.15-4.17,16.91,0,17.15.21a1,1,0,0,1,.2,1.4A1,1,0,0,1,251.35,295.48Z"/><path class="cls-6" d="M247.42,313.78c-4.54-.42-10.92-3-13.39-6.42,2-1.92,5.92-3.1,9.68-3.56a26.59,26.59,0,0,1,5.49-.16,7.6,7.6,0,0,0-.61-3.11"/><path class="cls-4" d="M247.43,314.79h-.1c-4.84-.45-11.45-3.13-14.12-6.84a1,1,0,0,1,.12-1.31c2.77-2.64,8.09-3.56,10.25-3.83a29.89,29.89,0,0,1,4.55-.23,9.68,9.68,0,0,0-.48-1.69,1,1,0,0,1,1.88-.71,8.64,8.64,0,0,1,.67,3.58,1,1,0,0,1-1.09.89,25.18,25.18,0,0,0-5.28.15,19.4,19.4,0,0,0-8.39,2.7c2.59,2.77,8.1,4.93,12.08,5.3a1,1,0,0,1-.09,2Z"/><circle class="cls-4" cx="247.73" cy="308.65" r="4.18"/><path class="cls-6" d="M243.15,300.89a2.7,2.7,0,0,1,.43,2.63"/><path class="cls-4" d="M243.58,304.52l-.23,0a1,1,0,0,1-.74-1.2c.27-1.19-.15-1.68-.17-1.7a1,1,0,0,1,0-1.4,1,1,0,0,1,1.37,0,3.66,3.66,0,0,1,.72,3.59A1,1,0,0,1,243.58,304.52Z"/><path class="cls-6" d="M238.08,302.23a2.72,2.72,0,0,1,.43,2.63"/><path class="cls-4" d="M238.51,305.86a.91.91,0,0,1-.23,0,1,1,0,0,1-.75-1.2,1.92,1.92,0,0,0-.16-1.7,1,1,0,0,1,0-1.4,1,1,0,0,1,1.36,0,3.6,3.6,0,0,1,.72,3.59A1,1,0,0,1,238.51,305.86Z"/><path class="cls-4" d="M236.74,349.71a22.36,22.36,0,0,1-8.56-1.81,30.56,30.56,0,0,1-8.15-5,1,1,0,0,1-.07-1.41,1,1,0,0,1,1.42-.07c.12.11,12.24,10.84,23.74,3.93a1,1,0,0,1,1,1.72A18.06,18.06,0,0,1,236.74,349.71Z"/><path class="cls-4" d="M261.16,329.15a1,1,0,0,1-.11-2,1.22,1.22,0,0,0,.52-.26,3.23,3.23,0,0,0-.58-.75,1,1,0,1,1,1.36-1.46c1,.93,1.82,2.39.82,3.46a3.29,3.29,0,0,1-1.89,1Zm.45-2.13h0Zm.08-.22Z"/><g class="cls-7"><g class="cls-8"><polygon class="cls-6" points="204.02 369.3 201.87 383.66 201.87 369.3 204.02 369.3"/><polygon class="cls-6" points="204.07 369.3 201.87 384.02 201.87 383.66 204.02 369.3 204.07 369.3"/><polygon class="cls-9" points="204.13 369.3 201.87 384.37 201.87 384.02 204.07 369.3 204.13 369.3"/><polygon class="cls-10" points="204.18 369.3 201.87 384.72 201.87 384.37 204.13 369.3 204.18 369.3"/><polygon class="cls-11" points="204.23 369.3 201.87 385.07 201.87 384.72 204.18 369.3 204.23 369.3"/><polygon class="cls-12" points="204.29 369.3 201.87 385.42 201.87 385.07 204.23 369.3 204.29 369.3"/><polygon class="cls-13" points="204.34 369.3 201.87 385.78 201.87 385.42 204.29 369.3 204.34 369.3"/><polygon class="cls-14" points="204.39 369.3 201.87 386.13 201.87 385.78 204.34 369.3 204.39 369.3"/><polygon class="cls-15" points="204.44 369.3 201.87 386.48 201.87 386.13 204.39 369.3 204.44 369.3"/><polygon class="cls-16" points="204.5 369.3 201.87 386.83 201.87 386.48 204.44 369.3 204.5 369.3"/><polygon class="cls-17" points="204.55 369.3 201.87 387.18 201.87 386.83 204.5 369.3 204.55 369.3"/><polygon class="cls-18" points="204.6 369.3 201.87 387.54 201.87 387.18 204.55 369.3 204.6 369.3"/><polygon class="cls-19" points="204.66 369.3 201.87 387.89 201.87 387.54 204.6 369.3 204.66 369.3"/><polygon class="cls-20" points="204.71 369.3 201.87 388.24 201.87 387.89 204.66 369.3 204.71 369.3"/><polygon class="cls-21" points="204.76 369.3 201.87 388.59 201.87 388.24 204.71 369.3 204.76 369.3"/><polygon class="cls-22" points="204.81 369.3 201.87 388.94 201.87 388.59 204.76 369.3 204.81 369.3"/><polygon class="cls-23" points="204.87 369.3 201.87 389.3 201.87 388.94 204.81 369.3 204.87 369.3"/><polygon class="cls-24" points="204.92 369.3 201.87 389.65 201.87 389.3 204.87 369.3 204.92 369.3"/><polygon class="cls-25" points="204.97 369.3 201.87 390 201.87 389.65 204.92 369.3 204.97 369.3"/><polygon class="cls-26" points="205.03 369.3 201.87 390.35 201.87 390 204.97 369.3 205.03 369.3"/><polygon class="cls-27" points="205.08 369.3 201.87 390.7 201.87 390.35 205.03 369.3 205.08 369.3"/><polygon class="cls-28" points="205.13 369.3 201.87 391.06 201.87 390.7 205.08 369.3 205.13 369.3"/><polygon class="cls-29" points="205.18 369.3 201.87 391.41 201.87 391.06 205.13 369.3 205.18 369.3"/><polygon class="cls-30" points="205.24 369.3 201.87 391.76 201.87 391.41 205.18 369.3 205.24 369.3"/><polygon class="cls-31" points="205.29 369.3 201.87 392.11 201.87 391.76 205.24 369.3 205.29 369.3"/><polygon class="cls-32" points="205.34 369.3 201.87 392.46 201.87 392.11 205.29 369.3 205.34 369.3"/><polygon class="cls-33" points="205.39 369.3 201.87 392.82 201.87 392.46 205.34 369.3 205.39 369.3"/><polygon class="cls-34" points="205.45 369.3 201.87 393.17 201.87 392.82 205.39 369.3 205.45 369.3"/><polygon class="cls-35" points="205.5 369.3 201.87 393.52 201.87 393.17 205.45 369.3 205.5 369.3"/><polygon class="cls-36" points="205.55 369.3 201.87 393.87 201.87 393.52 205.5 369.3 205.55 369.3"/><polygon class="cls-37" points="205.6 369.3 201.87 394.22 201.87 393.87 205.55 369.3 205.6 369.3"/><polygon class="cls-38" points="205.66 369.3 201.87 394.58 201.87 394.22 205.6 369.3 205.66 369.3"/><polygon class="cls-39" points="205.71 369.3 201.87 394.93 201.87 394.58 205.66 369.3 205.71 369.3"/><polygon class="cls-40" points="205.76 369.3 201.87 395.28 201.87 394.93 205.71 369.3 205.76 369.3"/><polygon class="cls-41" points="205.81 369.3 201.87 395.63 201.87 395.28 205.76 369.3 205.81 369.3"/><polygon class="cls-42" points="205.87 369.3 201.87 395.98 201.87 395.63 205.81 369.3 205.87 369.3"/><polygon class="cls-43" points="205.92 369.3 201.87 396.34 201.87 395.98 205.87 369.3 205.92 369.3"/><polygon class="cls-44" points="205.97 369.3 201.87 396.69 201.87 396.34 205.92 369.3 205.97 369.3"/><polygon class="cls-45" points="206.03 369.3 201.87 397.04 201.87 396.69 205.97 369.3 206.03 369.3"/><polygon class="cls-46" points="206.08 369.3 201.87 397.39 201.87 397.04 206.03 369.3 206.08 369.3"/><polygon class="cls-47" points="206.13 369.3 201.87 397.74 201.87 397.39 206.08 369.3 206.13 369.3"/><polygon class="cls-48" points="206.19 369.3 201.87 398.1 201.87 397.74 206.13 369.3 206.19 369.3"/><polygon class="cls-49" points="206.24 369.3 201.87 398.45 201.87 398.1 206.19 369.3 206.24 369.3"/><polygon class="cls-50" points="206.29 369.3 201.87 398.8 201.87 398.45 206.24 369.3 206.29 369.3"/><polygon class="cls-51" points="206.34 369.3 201.87 399.15 201.87 398.8 206.29 369.3 206.34 369.3"/><polygon class="cls-52" points="206.4 369.3 201.87 399.5 201.87 399.15 206.34 369.3 206.4 369.3"/><polygon class="cls-53" points="206.45 369.3 201.87 399.86 201.87 399.5 206.4 369.3 206.45 369.3"/><polygon class="cls-54" points="206.5 369.3 201.87 400.21 201.87 399.86 206.45 369.3 206.5 369.3"/><polygon class="cls-55" points="206.55 369.3 201.87 400.56 201.87 400.21 206.5 369.3 206.55 369.3"/><polygon class="cls-56" points="206.61 369.3 201.87 400.91 201.87 400.56 206.55 369.3 206.61 369.3"/><polygon class="cls-57" points="206.66 369.3 201.87 401.26 201.87 400.91 206.61 369.3 206.66 369.3"/><polygon class="cls-58" points="206.71 369.3 201.87 401.62 201.87 401.26 206.66 369.3 206.71 369.3"/><polygon class="cls-59" points="206.76 369.3 201.87 401.97 201.87 401.62 206.71 369.3 206.76 369.3"/><polygon class="cls-60" points="206.82 369.3 201.87 402.32 201.87 401.97 206.76 369.3 206.82 369.3"/><polygon class="cls-61" points="206.87 369.3 201.87 402.67 201.87 402.32 206.82 369.3 206.87 369.3"/><polygon class="cls-62" points="206.92 369.3 201.87 403.02 201.87 402.67 206.87 369.3 206.92 369.3"/><polygon class="cls-63" points="206.98 369.3 201.87 403.38 201.87 403.02 206.92 369.3 206.98 369.3"/><polygon class="cls-64" points="207.03 369.3 201.87 403.73 201.87 403.38 206.98 369.3 207.03 369.3"/><polygon class="cls-65" points="207.08 369.3 201.92 403.77 201.87 403.77 201.87 403.73 207.03 369.3 207.08 369.3"/><polygon class="cls-66" points="207.13 369.3 201.97 403.77 201.92 403.77 207.08 369.3 207.13 369.3"/><polygon class="cls-67" points="207.19 369.3 202.02 403.77 201.97 403.77 207.13 369.3 207.19 369.3"/><polygon class="cls-68" points="207.24 369.3 202.08 403.77 202.02 403.77 207.19 369.3 207.24 369.3"/><polygon class="cls-69" points="207.29 369.3 202.13 403.77 202.08 403.77 207.24 369.3 207.29 369.3"/><polygon class="cls-70" points="207.34 369.3 202.18 403.77 202.13 403.77 207.29 369.3 207.34 369.3"/><polygon class="cls-71" points="207.4 369.3 202.23 403.77 202.18 403.77 207.34 369.3 207.4 369.3"/><polygon class="cls-72" points="207.45 369.3 202.29 403.77 202.23 403.77 207.4 369.3 207.45 369.3"/><polygon class="cls-73" points="207.5 369.3 202.34 403.77 202.29 403.77 207.45 369.3 207.5 369.3"/><polygon class="cls-74" points="207.56 369.3 202.39 403.77 202.34 403.77 207.5 369.3 207.56 369.3"/><polygon class="cls-75" points="207.61 369.3 202.44 403.77 202.39 403.77 207.56 369.3 207.61 369.3"/><polygon class="cls-76" points="207.66 369.3 202.5 403.77 202.44 403.77 207.61 369.3 207.66 369.3"/><polygon class="cls-77" points="207.71 369.3 202.55 403.77 202.5 403.77 207.66 369.3 207.71 369.3"/><polygon class="cls-78" points="207.77 369.3 202.6 403.77 202.55 403.77 207.71 369.3 207.77 369.3"/><polygon class="cls-79" points="207.82 369.3 202.66 403.77 202.6 403.77 207.77 369.3 207.82 369.3"/><polygon class="cls-80" points="207.87 369.3 202.71 403.77 202.66 403.77 207.82 369.3 207.87 369.3"/><polygon class="cls-81" points="207.93 369.3 202.76 403.77 202.71 403.77 207.87 369.3 207.93 369.3"/><polygon class="cls-82" points="207.98 369.3 202.81 403.77 202.76 403.77 207.93 369.3 207.98 369.3"/><polygon class="cls-83" points="208.03 369.3 202.87 403.77 202.81 403.77 207.98 369.3 208.03 369.3"/><polygon class="cls-84" points="208.08 369.3 202.92 403.77 202.87 403.77 208.03 369.3 208.08 369.3"/><polygon class="cls-85" points="208.14 369.3 202.97 403.77 202.92 403.77 208.08 369.3 208.14 369.3"/><polygon class="cls-86" points="208.19 369.3 203.03 403.77 202.97 403.77 208.14 369.3 208.19 369.3"/><polygon class="cls-87" points="208.24 369.3 203.08 403.77 203.03 403.77 208.19 369.3 208.24 369.3"/><polygon class="cls-88" points="208.29 369.3 203.13 403.77 203.08 403.77 208.24 369.3 208.29 369.3"/><polygon class="cls-89" points="208.35 369.3 203.18 403.77 203.13 403.77 208.29 369.3 208.35 369.3"/><polygon class="cls-90" points="208.4 369.3 203.24 403.77 203.18 403.77 208.35 369.3 208.4 369.3"/><polygon class="cls-91" points="208.45 369.3 203.29 403.77 203.24 403.77 208.4 369.3 208.45 369.3"/><polygon class="cls-92" points="208.5 369.3 203.34 403.77 203.29 403.77 208.45 369.3 208.5 369.3"/><polygon class="cls-93" points="208.56 369.3 203.39 403.77 203.34 403.77 208.5 369.3 208.56 369.3"/><polygon class="cls-94" points="208.61 369.3 203.45 403.77 203.39 403.77 208.56 369.3 208.61 369.3"/><polygon class="cls-95" points="208.66 369.3 203.5 403.77 203.45 403.77 208.61 369.3 208.66 369.3"/><polygon class="cls-96" points="208.72 369.3 203.55 403.77 203.5 403.77 208.66 369.3 208.72 369.3"/><polygon class="cls-97" points="208.77 369.3 203.6 403.77 203.55 403.77 208.72 369.3 208.77 369.3"/><polygon class="cls-98" points="208.82 369.3 203.66 403.77 203.6 403.77 208.77 369.3 208.82 369.3"/><polygon class="cls-99" points="208.87 369.3 203.71 403.77 203.66 403.77 208.82 369.3 208.87 369.3"/><polygon class="cls-100" points="208.93 369.3 203.76 403.77 203.71 403.77 208.87 369.3 208.93 369.3"/><polygon class="cls-101" points="208.98 369.3 203.82 403.77 203.76 403.77 208.93 369.3 208.98 369.3"/><polygon class="cls-102" points="209.03 369.3 203.87 403.77 203.82 403.77 208.98 369.3 209.03 369.3"/><polygon class="cls-103" points="209.09 369.3 203.92 403.77 203.87 403.77 209.03 369.3 209.09 369.3"/><polygon class="cls-104" points="209.14 369.3 203.97 403.77 203.92 403.77 209.09 369.3 209.14 369.3"/><polygon class="cls-105" points="209.19 369.3 204.03 403.77 203.97 403.77 209.14 369.3 209.19 369.3"/><polygon class="cls-106" points="209.24 369.3 204.08 403.77 204.03 403.77 209.19 369.3 209.24 369.3"/><polygon class="cls-107" points="209.3 369.3 204.13 403.77 204.08 403.77 209.24 369.3 209.3 369.3"/><polygon class="cls-108" points="209.35 369.3 204.19 403.77 204.13 403.77 209.3 369.3 209.35 369.3"/><polygon class="cls-109" points="209.4 369.3 204.24 403.77 204.19 403.77 209.35 369.3 209.4 369.3"/><polygon class="cls-110" points="209.45 369.3 204.29 403.77 204.24 403.77 209.4 369.3 209.45 369.3"/><polygon class="cls-111" points="209.51 369.3 204.34 403.77 204.29 403.77 209.45 369.3 209.51 369.3"/><polygon class="cls-112" points="209.56 369.3 204.4 403.77 204.34 403.77 209.51 369.3 209.56 369.3"/><polygon class="cls-113" points="209.61 369.3 204.45 403.77 204.4 403.77 209.56 369.3 209.61 369.3"/><polygon class="cls-114" points="209.66 369.3 204.5 403.77 204.45 403.77 209.61 369.3 209.66 369.3"/><polygon class="cls-115" points="209.72 369.3 204.55 403.77 204.5 403.77 209.66 369.3 209.72 369.3"/><polygon class="cls-116" points="209.77 369.3 204.61 403.77 204.55 403.77 209.72 369.3 209.77 369.3"/><polygon class="cls-117" points="209.82 369.3 204.66 403.77 204.61 403.77 209.77 369.3 209.82 369.3"/><polygon class="cls-118" points="209.88 369.3 204.71 403.77 204.66 403.77 209.82 369.3 209.88 369.3"/><polygon class="cls-119" points="209.93 369.3 204.76 403.77 204.71 403.77 209.88 369.3 209.93 369.3"/><polygon class="cls-120" points="209.98 369.3 204.82 403.77 204.76 403.77 209.93 369.3 209.98 369.3"/><polygon class="cls-121" points="210.03 369.3 204.87 403.77 204.82 403.77 209.98 369.3 210.03 369.3"/><polygon class="cls-122" points="210.09 369.3 204.92 403.77 204.87 403.77 210.03 369.3 210.09 369.3"/><polygon class="cls-123" points="210.14 369.3 204.98 403.77 204.92 403.77 210.09 369.3 210.14 369.3"/><polygon class="cls-124" points="210.19 369.3 205.03 403.77 204.98 403.77 210.14 369.3 210.19 369.3"/><polygon class="cls-125" points="210.25 369.3 205.08 403.77 205.03 403.77 210.19 369.3 210.25 369.3"/><polygon class="cls-126" points="210.3 369.3 205.13 403.77 205.08 403.77 210.25 369.3 210.3 369.3"/><polygon class="cls-127" points="210.35 369.3 205.19 403.77 205.13 403.77 210.3 369.3 210.35 369.3"/><polygon class="cls-128" points="210.4 369.3 205.24 403.77 205.19 403.77 210.35 369.3 210.4 369.3"/><polygon class="cls-129" points="210.46 369.3 205.29 403.77 205.24 403.77 210.4 369.3 210.46 369.3"/><polygon class="cls-130" points="210.51 369.3 205.34 403.77 205.29 403.77 210.46 369.3 210.51 369.3"/><polygon class="cls-131" points="210.56 369.3 205.4 403.77 205.34 403.77 210.51 369.3 210.56 369.3"/><polygon class="cls-132" points="210.61 369.3 205.45 403.77 205.4 403.77 210.56 369.3 210.61 369.3"/><polygon class="cls-133" points="210.67 369.3 205.5 403.77 205.45 403.77 210.61 369.3 210.67 369.3"/><polygon class="cls-134" points="210.72 369.3 205.56 403.77 205.5 403.77 210.67 369.3 210.72 369.3"/><polygon class="cls-135" points="210.77 369.3 205.61 403.77 205.56 403.77 210.72 369.3 210.77 369.3"/><polygon class="cls-136" points="210.82 369.3 205.66 403.77 205.61 403.77 210.77 369.3 210.82 369.3"/><polygon class="cls-137" points="210.88 369.3 205.71 403.77 205.66 403.77 210.82 369.3 210.88 369.3"/><polygon class="cls-138" points="210.93 369.3 205.77 403.77 205.71 403.77 210.88 369.3 210.93 369.3"/><polygon class="cls-139" points="210.98 369.3 205.82 403.77 205.77 403.77 210.93 369.3 210.98 369.3"/><polygon class="cls-140" points="211.04 369.3 205.87 403.77 205.82 403.77 210.98 369.3 211.04 369.3"/><polygon class="cls-141" points="211.09 369.3 205.93 403.77 205.87 403.77 211.04 369.3 211.09 369.3"/><polygon class="cls-142" points="211.14 369.3 205.98 403.77 205.93 403.77 211.09 369.3 211.14 369.3"/><polygon class="cls-143" points="211.19 369.3 206.03 403.77 205.98 403.77 211.14 369.3 211.19 369.3"/><polygon class="cls-144" points="211.25 369.3 206.08 403.77 206.03 403.77 211.19 369.3 211.25 369.3"/><polygon class="cls-145" points="211.3 369.3 206.14 403.77 206.08 403.77 211.25 369.3 211.3 369.3"/><polygon class="cls-146" points="211.35 369.3 206.19 403.77 206.14 403.77 211.3 369.3 211.35 369.3"/><polygon class="cls-147" points="211.41 369.3 206.24 403.77 206.19 403.77 211.35 369.3 211.41 369.3"/><polygon class="cls-148" points="211.46 369.3 206.29 403.77 206.24 403.77 211.41 369.3 211.46 369.3"/><polygon class="cls-149" points="211.51 369.3 206.35 403.77 206.29 403.77 211.46 369.3 211.51 369.3"/><polygon class="cls-150" points="211.56 369.3 206.4 403.77 206.35 403.77 211.51 369.3 211.56 369.3"/><polygon class="cls-151" points="211.62 369.3 206.45 403.77 206.4 403.77 211.56 369.3 211.62 369.3"/><polygon class="cls-152" points="211.67 369.3 206.5 403.77 206.45 403.77 211.62 369.3 211.67 369.3"/><polygon class="cls-153" points="211.72 369.3 206.56 403.77 206.5 403.77 211.67 369.3 211.72 369.3"/><polygon class="cls-154" points="211.77 369.3 206.61 403.77 206.56 403.77 211.72 369.3 211.77 369.3"/><polygon class="cls-155" points="211.83 369.3 206.66 403.77 206.61 403.77 211.77 369.3 211.83 369.3"/><polygon class="cls-156" points="211.88 369.3 206.72 403.77 206.66 403.77 211.83 369.3 211.88 369.3"/><polygon class="cls-157" points="211.93 369.3 206.77 403.77 206.72 403.77 211.88 369.3 211.93 369.3"/><polygon class="cls-158" points="211.99 369.3 206.82 403.77 206.77 403.77 211.93 369.3 211.99 369.3"/><polygon class="cls-159" points="212.04 369.3 206.87 403.77 206.82 403.77 211.99 369.3 212.04 369.3"/><polygon class="cls-160" points="212.09 369.3 206.93 403.77 206.87 403.77 212.04 369.3 212.09 369.3"/><polygon class="cls-161" points="212.14 369.3 206.98 403.77 206.93 403.77 212.09 369.3 212.14 369.3"/><polygon class="cls-162" points="212.2 369.3 207.03 403.77 206.98 403.77 212.14 369.3 212.2 369.3"/><polygon class="cls-163" points="212.25 369.3 207.09 403.77 207.03 403.77 212.2 369.3 212.25 369.3"/><polygon class="cls-164" points="212.3 369.3 207.14 403.77 207.09 403.77 212.25 369.3 212.3 369.3"/><polygon class="cls-165" points="212.35 369.3 207.19 403.77 207.14 403.77 212.3 369.3 212.35 369.3"/><polygon class="cls-166" points="212.41 369.3 207.24 403.77 207.19 403.77 212.35 369.3 212.41 369.3"/><polygon class="cls-167" points="212.46 369.3 207.3 403.77 207.24 403.77 212.41 369.3 212.46 369.3"/><polygon class="cls-168" points="212.51 369.3 207.35 403.77 207.3 403.77 212.46 369.3 212.51 369.3"/><polygon class="cls-169" points="212.56 369.3 207.4 403.77 207.35 403.77 212.51 369.3 212.56 369.3"/><polygon class="cls-170" points="212.62 369.3 207.45 403.77 207.4 403.77 212.56 369.3 212.62 369.3"/><polygon class="cls-171" points="212.67 369.3 207.51 403.77 207.45 403.77 212.62 369.3 212.67 369.3"/><polygon class="cls-172" points="212.72 369.3 207.56 403.77 207.51 403.77 212.67 369.3 212.72 369.3"/><polygon class="cls-173" points="212.78 369.3 207.61 403.77 207.56 403.77 212.72 369.3 212.78 369.3"/><polygon class="cls-174" points="212.83 369.3 207.66 403.77 207.61 403.77 212.78 369.3 212.83 369.3"/><polygon class="cls-175" points="212.88 369.3 207.72 403.77 207.66 403.77 212.83 369.3 212.88 369.3"/><polygon class="cls-176" points="212.93 369.3 207.77 403.77 207.72 403.77 212.88 369.3 212.93 369.3"/><polygon class="cls-177" points="212.99 369.3 207.82 403.77 207.77 403.77 212.93 369.3 212.99 369.3"/><polygon class="cls-178" points="213.04 369.3 207.88 403.77 207.82 403.77 212.99 369.3 213.04 369.3"/><polygon class="cls-179" points="213.09 369.3 207.93 403.77 207.88 403.77 213.04 369.3 213.09 369.3"/><polygon class="cls-180" points="213.15 369.3 207.98 403.77 207.93 403.77 213.09 369.3 213.15 369.3"/><polygon class="cls-181" points="213.2 369.3 208.03 403.77 207.98 403.77 213.15 369.3 213.2 369.3"/><polygon class="cls-182" points="213.25 369.3 208.09 403.77 208.03 403.77 213.2 369.3 213.25 369.3"/><polygon class="cls-183" points="213.3 369.3 208.14 403.77 208.09 403.77 213.25 369.3 213.3 369.3"/><polygon class="cls-184" points="213.36 369.3 208.19 403.77 208.14 403.77 213.3 369.3 213.36 369.3"/><polygon class="cls-185" points="213.41 369.3 208.25 403.77 208.19 403.77 213.36 369.3 213.41 369.3"/><polygon class="cls-186" points="213.46 369.3 208.3 403.77 208.25 403.77 213.41 369.3 213.46 369.3"/><polygon class="cls-187" points="213.51 369.3 208.35 403.77 208.3 403.77 213.46 369.3 213.51 369.3"/><polygon class="cls-188" points="213.57 369.3 208.4 403.77 208.35 403.77 213.51 369.3 213.57 369.3"/><polygon class="cls-189" points="213.62 369.3 208.46 403.77 208.4 403.77 213.57 369.3 213.62 369.3"/><polygon class="cls-190" points="213.67 369.3 208.51 403.77 208.46 403.77 213.62 369.3 213.67 369.3"/><polygon class="cls-191" points="213.72 369.3 208.56 403.77 208.51 403.77 213.67 369.3 213.72 369.3"/><polygon class="cls-192" points="213.78 369.3 208.61 403.77 208.56 403.77 213.72 369.3 213.78 369.3"/><polygon class="cls-193" points="213.83 369.3 208.67 403.77 208.61 403.77 213.78 369.3 213.83 369.3"/><polygon class="cls-194" points="213.88 369.3 208.72 403.77 208.67 403.77 213.83 369.3 213.88 369.3"/><polygon class="cls-195" points="213.94 369.3 208.77 403.77 208.72 403.77 213.88 369.3 213.94 369.3"/><polygon class="cls-196" points="213.99 369.3 208.82 403.77 208.77 403.77 213.94 369.3 213.99 369.3"/><polygon class="cls-197" points="214.04 369.3 208.88 403.77 208.82 403.77 213.99 369.3 214.04 369.3"/><polygon class="cls-198" points="214.09 369.3 208.93 403.77 208.88 403.77 214.04 369.3 214.09 369.3"/><polygon class="cls-199" points="214.15 369.3 208.98 403.77 208.93 403.77 214.09 369.3 214.15 369.3"/><polygon class="cls-200" points="214.2 369.3 209.04 403.77 208.98 403.77 214.15 369.3 214.2 369.3"/><polygon class="cls-201" points="214.25 369.3 209.09 403.77 209.04 403.77 214.2 369.3 214.25 369.3"/><polygon class="cls-202" points="214.31 369.3 209.14 403.77 209.09 403.77 214.25 369.3 214.31 369.3"/><polygon class="cls-203" points="214.36 369.3 209.19 403.77 209.14 403.77 214.31 369.3 214.36 369.3"/><polygon class="cls-204" points="214.4 369.4 209.25 403.77 209.19 403.77 214.36 369.3 214.4 369.3 214.4 369.4"/><polygon class="cls-205" points="214.4 369.76 209.3 403.77 209.25 403.77 214.4 369.4 214.4 369.76"/><polygon class="cls-206" points="214.4 370.11 209.35 403.77 209.3 403.77 214.4 369.76 214.4 370.11"/><polygon class="cls-207" points="214.4 370.46 209.41 403.77 209.35 403.77 214.4 370.11 214.4 370.46"/><polygon class="cls-208" points="214.4 370.81 209.46 403.77 209.41 403.77 214.4 370.46 214.4 370.81"/><polygon class="cls-209" points="214.4 371.16 209.51 403.77 209.46 403.77 214.4 370.81 214.4 371.16"/><polygon class="cls-210" points="214.4 371.51 209.56 403.77 209.51 403.77 214.4 371.16 214.4 371.51"/><polygon class="cls-211" points="214.4 371.87 209.62 403.77 209.56 403.77 214.4 371.51 214.4 371.87"/><polygon class="cls-212" points="214.4 372.22 209.67 403.77 209.62 403.77 214.4 371.87 214.4 372.22"/><polygon class="cls-213" points="214.4 372.57 209.72 403.77 209.67 403.77 214.4 372.22 214.4 372.57"/><polygon class="cls-214" points="214.4 372.92 209.77 403.77 209.72 403.77 214.4 372.57 214.4 372.92"/><polygon class="cls-215" points="214.4 373.27 209.83 403.77 209.77 403.77 214.4 372.92 214.4 373.27"/><polygon class="cls-216" points="214.4 373.63 209.88 403.77 209.83 403.77 214.4 373.27 214.4 373.63"/><polygon class="cls-217" points="214.4 373.98 209.93 403.77 209.88 403.77 214.4 373.63 214.4 373.98"/><polygon class="cls-218" points="214.4 374.33 209.99 403.77 209.93 403.77 214.4 373.98 214.4 374.33"/><polygon class="cls-219" points="214.4 374.68 210.04 403.77 209.99 403.77 214.4 374.33 214.4 374.68"/><polygon class="cls-220" points="214.4 375.04 210.09 403.77 210.04 403.77 214.4 374.68 214.4 375.04"/><polygon class="cls-221" points="214.4 375.39 210.14 403.77 210.09 403.77 214.4 375.04 214.4 375.39"/><polygon class="cls-222" points="214.4 375.74 210.2 403.77 210.14 403.77 214.4 375.39 214.4 375.74"/><polygon class="cls-223" points="214.4 376.09 210.25 403.77 210.2 403.77 214.4 375.74 214.4 376.09"/><polygon class="cls-224" points="214.4 376.44 210.3 403.77 210.25 403.77 214.4 376.09 214.4 376.44"/><polygon class="cls-225" points="214.4 376.8 210.35 403.77 210.3 403.77 214.4 376.44 214.4 376.8"/><polygon class="cls-226" points="214.4 377.15 210.41 403.77 210.35 403.77 214.4 376.8 214.4 377.15"/><polygon class="cls-227" points="214.4 377.5 210.46 403.77 210.41 403.77 214.4 377.15 214.4 377.5"/><polygon class="cls-228" points="214.4 377.85 210.51 403.77 210.46 403.77 214.4 377.5 214.4 377.85"/><polygon class="cls-229" points="214.4 378.2 210.56 403.77 210.51 403.77 214.4 377.85 214.4 378.2"/><polygon class="cls-230" points="214.4 378.56 210.62 403.77 210.56 403.77 214.4 378.2 214.4 378.56"/><polygon class="cls-231" points="214.4 378.91 210.67 403.77 210.62 403.77 214.4 378.56 214.4 378.91"/><polygon class="cls-231" points="210.67 403.77 214.4 378.91 214.4 403.77 210.67 403.77"/></g></g><path class="cls-6" d="M175,300.08a1,1,0,0,1-.79-1.63c.32-.39,7.93-9.81,23.17-15.51,18.19-6.81,26.14-5.81,28.14-5.34a1,1,0,1,1-.45,1.95c-1.87-.43-9.33-1.34-27,5.26-14.69,5.5-22.24,14.8-22.31,14.89A1,1,0,0,1,175,300.08Z"/><path class="cls-4" d="M364.94,505.84a13,13,0,1,1,13-13A13,13,0,0,1,364.94,505.84Zm0-24a11,11,0,1,0,11,11A11,11,0,0,0,364.94,481.8Z"/><circle class="cls-4" cx="364.94" cy="492.82" r="4.01"/><path class="cls-4" d="M333.89,139.23a1,1,0,0,1-.95-.67,60.15,60.15,0,0,1-2.71-13.76c-.78-10.2,1.5-18.55,6.58-24.14,8.7-9.57,25.33-11.41,49.41-5.47A1,1,0,0,1,387,96.4a1,1,0,0,1-1.21.73c-23.32-5.74-39.28-4.1-47.45,4.88-11.43,12.58-3.54,35.66-3.46,35.89a1,1,0,0,1-.61,1.28A1,1,0,0,1,333.89,139.23Z"/><path class="cls-4" d="M385.16,103.72a1.12,1.12,0,0,1-.31,0c-4.66-1.48-6.11-1.51-6.48-1.47a1,1,0,0,1-.79.19,1,1,0,0,1-.81-1.16,1.31,1.31,0,0,1,.56-.77c.41-.25,1.39-.84,8.13,1.3a1,1,0,0,1-.3,2Zm-6.43-2.06Zm0-.07s0,0,0,.07S378.74,101.61,378.74,101.59Zm0,0Zm0,0h0Zm0,0Z"/><path class="cls-4" d="M390.53,145.17a1,1,0,0,1-.77-.36,1.26,1.26,0,0,1-.23-.92c.08-.48.26-1.61,6.27-5.34a1,1,0,0,1,1.38.32,1,1,0,0,1-.32,1.38c-4.15,2.58-5.12,3.67-5.33,4a1,1,0,0,1-.36.72A1,1,0,0,1,390.53,145.17Zm.82-1.57Zm0-.06,0,.06Zm0,0Zm0,0h0Z"/><path class="cls-4" d="M381.83,102.65h-.15a1,1,0,0,1-.84-1.14l.9-6a1,1,0,0,1,1.14-.84,1,1,0,0,1,.84,1.14l-.9,6A1,1,0,0,1,381.83,102.65Z"/><path class="cls-4" d="M397.49,148.64a1,1,0,0,1-.85-.47l-3.86-6.25a1,1,0,1,1,1.71-1l3.85,6.25a1,1,0,0,1-.33,1.37A.9.9,0,0,1,397.49,148.64Z"/><path class="cls-4" d="M577.29,375.63H485.14a1,1,0,0,1-1-1V269.45a1,1,0,0,1,1-1h92.15a1,1,0,0,1,1,1V374.63A1,1,0,0,1,577.29,375.63Zm-91.15-2h90.15V270.45H486.14Z"/><path class="cls-4" d="M577.15,369.62H485a1,1,0,0,1-1-1V263.44a1,1,0,0,1,1-1h92.15a1,1,0,0,1,1,1V368.61A1,1,0,0,1,577.15,369.62Zm-91.15-2h90.15V264.44H486Z"/><path class="cls-4" d="M577.29,264.44H485.14a1,1,0,0,1-1-1,11,11,0,0,1,11-11h15.69a5.76,5.76,0,0,0,5.76-5.76,7.77,7.77,0,0,1,7.77-7.76h13.68a7.77,7.77,0,0,1,7.76,7.76,5.77,5.77,0,0,0,5.76,5.76h15.7a11,11,0,0,1,11,11A1,1,0,0,1,577.29,264.44Zm-91.09-2h90a9,9,0,0,0-9-8h-15.7a7.77,7.77,0,0,1-7.76-7.76,5.77,5.77,0,0,0-5.76-5.76H524.38a5.77,5.77,0,0,0-5.76,5.76,7.78,7.78,0,0,1-7.77,7.76H495.16A9,9,0,0,0,486.2,262.44Z"/><circle class="cls-232" cx="531.22" cy="250.42" r="5.01"/><path class="cls-4" d="M531.22,256.43a6,6,0,1,1,6-6A6,6,0,0,1,531.22,256.43Zm0-10a4,4,0,1,0,4,4A4,4,0,0,0,531.22,246.41Z"/><path class="cls-5" d="M531.14,305.4a27.11,27.11,0,0,0-20.93,10.94,27.15,27.15,0,0,0,44.09.71A27.13,27.13,0,0,0,531.14,305.4Z"/><path d="M521.61,302.24a1,1,0,0,1-.71-.29l-3.3-3.3a1,1,0,1,1,1.41-1.42l3.3,3.3a1,1,0,0,1,0,1.42A1,1,0,0,1,521.61,302.24Z"/><path d="M541.42,302.24a1,1,0,0,1-.71-.29,1,1,0,0,1,0-1.42l3.3-3.3a1,1,0,1,1,1.42,1.42l-3.3,3.3A1,1,0,0,1,541.42,302.24Z"/><path d="M531.51,298.94a1,1,0,0,1-1-1v-3.31a1,1,0,0,1,2,0v3.31A1,1,0,0,1,531.51,298.94Z"/><path d="M544.72,335.26A1,1,0,0,1,544,335l-3.3-3.3a1,1,0,0,1,1.42-1.42l3.3,3.3a1,1,0,0,1,0,1.42A1,1,0,0,1,544.72,335.26Z"/><path d="M518.3,335.26a1,1,0,0,1-.71-.29,1,1,0,0,1,0-1.42l3.3-3.3a1,1,0,1,1,1.41,1.42L519,335A1,1,0,0,1,518.3,335.26Z"/><path d="M531.51,338.56a1,1,0,0,1-1-1v-3.3a1,1,0,0,1,2,0v3.3A1,1,0,0,1,531.51,338.56Z"/><path class="cls-233" d="M543.71,311.73h-7.05v-7a1.07,1.07,0,0,0-1.07-1.07H529a1.07,1.07,0,0,0-1.07,1.07v7h-7a1.07,1.07,0,0,0-1.07,1.07v6.6a1.07,1.07,0,0,0,1.07,1.07h7v7a1.07,1.07,0,0,0,1.07,1.07h6.59a1.07,1.07,0,0,0,1.07-1.07v-7h7.05a1.07,1.07,0,0,0,1.07-1.07v-6.6A1.07,1.07,0,0,0,543.71,311.73Z"/><path d="M531.72,347.28c-3,0-5.57-1.48-8.05-2.9a29.81,29.81,0,0,0-3.38-1.77,31.62,31.62,0,0,0-3.78-1.21c-2.74-.76-5.57-1.54-7.6-3.57s-2.81-4.86-3.57-7.6a31.62,31.62,0,0,0-1.21-3.78,30.53,30.53,0,0,0-1.76-3.38c-1.43-2.48-2.91-5.05-2.91-8s1.48-5.57,2.91-8a30.53,30.53,0,0,0,1.76-3.38,31.62,31.62,0,0,0,1.21-3.78c.76-2.74,1.54-5.57,3.57-7.6s4.86-2.81,7.6-3.57a31.62,31.62,0,0,0,3.78-1.21,28.27,28.27,0,0,0,3.38-1.77c2.48-1.42,5.05-2.9,8.05-2.9s5.56,1.48,8,2.9a29.88,29.88,0,0,0,3.38,1.77,32.39,32.39,0,0,0,3.79,1.21c2.74.76,5.57,1.54,7.6,3.57s2.81,4.86,3.56,7.6a35.71,35.71,0,0,0,1.21,3.78,30.68,30.68,0,0,0,1.77,3.38c1.43,2.48,2.9,5,2.9,8s-1.47,5.56-2.9,8a30.68,30.68,0,0,0-1.77,3.38,35.71,35.71,0,0,0-1.21,3.78c-.75,2.74-1.54,5.57-3.57,7.6s-4.85,2.81-7.59,3.57a22.51,22.51,0,0,0-7.17,3C537.28,345.8,534.72,347.28,531.72,347.28Zm0-62.5c-2.46,0-4.79,1.34-7.05,2.63a31,31,0,0,1-3.61,1.88,33,33,0,0,1-4,1.29c-2.6.72-5.06,1.4-6.71,3.06s-2.34,4.11-3.06,6.71a33.57,33.57,0,0,1-1.29,4A31,31,0,0,1,504.1,308c-1.29,2.25-2.63,4.58-2.63,7s1.34,4.79,2.63,7a31.79,31.79,0,0,1,1.88,3.61,33.57,33.57,0,0,1,1.29,4c.72,2.6,1.4,5.06,3.06,6.72s4.11,2.33,6.71,3.05a34.84,34.84,0,0,1,4,1.29,32.59,32.59,0,0,1,3.61,1.88c2.26,1.3,4.59,2.64,7.05,2.64s4.79-1.34,7-2.64a33.64,33.64,0,0,1,3.62-1.88,34.68,34.68,0,0,1,4-1.29c2.61-.72,5.06-1.4,6.72-3.05s2.33-4.12,3-6.72a37.61,37.61,0,0,1,1.29-4,33.5,33.5,0,0,1,1.88-3.61c1.3-2.25,2.64-4.58,2.64-7s-1.34-4.8-2.64-7a32.59,32.59,0,0,1-1.88-3.61,37.61,37.61,0,0,1-1.29-4c-.72-2.6-1.4-5.06-3-6.71s-4.11-2.34-6.72-3.06a32.86,32.86,0,0,1-4-1.29,31.92,31.92,0,0,1-3.62-1.88C536.51,286.12,534.18,284.78,531.72,284.78Z"/><path class="cls-234" d="M403.57,351.09h-16V322c4.42,6.54,9.72,8.91,16,6.51Z"/><path d="M403.57,352.59h-16a1,1,0,0,1-1-1V286.48a1,1,0,0,1,1-1h16a1,1,0,0,1,1,1v65.11A1,1,0,0,1,403.57,352.59Zm-15-2h14V287.48h-14Z"/><path d="M399,369.62h-7a1,1,0,0,1-.76-.35,1,1,0,0,1-.24-.79c.52-3.87-.72-7.55-3.78-11.25a1,1,0,0,1-.14-1.06,1,1,0,0,1,.91-.58h15a1,1,0,0,1,.91.58,1,1,0,0,1-.13,1.06c-3.23,3.92-4.48,7.58-3.8,11.2a1,1,0,0,1-.21.82A1,1,0,0,1,399,369.62Zm-5.91-2h4.76c-.31-3.31.73-6.61,3.13-10H390A15.91,15.91,0,0,1,393.09,367.61Z"/><path d="M412,357.1H379.15a1,1,0,0,1-1-1v-4.5a1,1,0,0,1,1-1H412a1,1,0,0,1,1,1v4.5A1,1,0,0,1,412,357.1Zm-31.81-2H411v-2.5h-30.8Z"/><path d="M403,373.62H388a1,1,0,0,1-1-1v-4a1,1,0,0,1,1-1h15a1,1,0,0,1,1,1v4A1,1,0,0,1,403,373.62Zm-14-2h13v-2H389Z"/><path d="M379,354.59a1,1,0,0,1-1-1v-6a1,1,0,0,1,2,0v6A1,1,0,0,1,379,354.59Z"/><path d="M412,354.59a1,1,0,0,1-1-1v-6a1,1,0,1,1,2,0v6A1,1,0,0,1,412,354.59Z"/><path d="M398,340.57H388a1,1,0,0,1,0-2h10a1,1,0,0,1,0,2Z"/><path d="M393,334.56h-5a1,1,0,0,1,0-2h5a1,1,0,0,1,0,2Z"/><path d="M398,328.55H388a1,1,0,0,1,0-2h10a1,1,0,0,1,0,2Z"/><path d="M393,322.54h-5a1,1,0,0,1,0-2h5a1,1,0,0,1,0,2Z"/><path d="M398,316.53H388a1,1,0,0,1,0-2h10a1,1,0,0,1,0,2Z"/><path d="M393,310.52h-5a1,1,0,0,1,0-2h5a1,1,0,0,1,0,2Z"/><path d="M398,304.51H388a1,1,0,0,1,0-2h10a1,1,0,0,1,0,2Z"/><path d="M393,298.5h-5a1,1,0,0,1,0-2h5a1,1,0,0,1,0,2Z"/><path d="M399,287.48a1,1,0,0,1-1-1v-2h-4v2a1,1,0,0,1-2,0v-3a1,1,0,0,1,1-1h6a1,1,0,0,1,1,1v3A1,1,0,0,1,399,287.48Z"/><path d="M399,284.48a1,1,0,0,1-.95-.69L396,277.63l-2.05,6.16a1,1,0,0,1-1.9-.63l3-9a1,1,0,0,1,1.9,0l3,9a1,1,0,0,1-.64,1.26A.85.85,0,0,1,399,284.48Z"/><path d="M396,275.46a1,1,0,0,1-1-1v-20a1,1,0,1,1,2,0v20A1,1,0,0,1,396,275.46Z"/><rect x="387.48" y="286.98" width="16.03" height="5.01"/><path class="cls-5" d="M400.5,290h-10a1,1,0,0,1,0-2h10a1,1,0,0,1,0,2Z"/><g class="cls-235"><path class="cls-5" d="M654.48,411.73c0-40.08,5-101.59,30.54-101.59s31.51-92,31.51-92c0-4.48-63-4.48-63,0,0,0,6,92,31.51,92s30.53,61.51,30.53,101.59C715.52,417.68,654.48,417.68,654.48,411.73Z"/></g><g class="cls-236"><rect x="655.24" y="246.41" width="60.28" height="1"/><rect x="655.24" y="253.06" width="60.28" height="2"/><rect x="655.24" y="264.8" width="60.28" height="2"/><rect x="655.24" y="276.53" width="60.28" height="2"/><rect class="cls-233" x="655.24" y="288.24" width="60.28" height="2"/><rect class="cls-233" x="655.24" y="299.97" width="60.28" height="2"/><rect class="cls-233" x="655.24" y="309.15" width="60.28" height="2"/><rect class="cls-233" x="655.24" y="320.64" width="60.28" height="2"/><rect x="655.24" y="332.37" width="60.28" height="2"/><rect x="655.24" y="344.02" width="60.28" height="2"/><rect x="655.24" y="355.75" width="60.28" height="2"/><rect x="655.24" y="367.48" width="60.28" height="2"/></g><path class="cls-4" d="M686,217.36c-5.43,0-32.55-.23-32.55-4.75s27.12-4.76,32.55-4.76,32.56.23,32.56,4.76S691.41,217.36,686,217.36Zm-30.26-4.75c2.29,1.23,13.21,2.75,30.26,2.75s28-1.52,30.27-2.75C714,211.37,703,209.85,686,209.85S658,211.37,655.71,212.61Zm60.89.26h0Z"/><path class="cls-4" d="M686,423.21c-5.43,0-32.55-.23-32.55-4.76s27.12-4.76,32.55-4.76,32.56.23,32.56,4.76S691.41,423.21,686,423.21Zm-30.26-4.76c2.29,1.23,13.21,2.75,30.26,2.75s28-1.52,30.27-2.75C714,417.22,703,415.69,686,415.69S658,417.22,655.71,418.45Zm60.89.26h0Z"/></g></g></svg>